<svg preserveAspectRatio="none" width="1440" height="600" viewBox="0 70 1440 600" fill="none" xmlns="http://www.w3.org/2000/svg">
<mask id="mask0_34_108" style="mask-type:luminance" maskUnits="userSpaceOnUse" x="0" y="0" width="1440" height="1036">
<path d="M1440 0H0V1035.92H1440V0Z" fill="white"/>
</mask>
<g mask="url(#mask0_34_108)">
<path d="M716.36 724C1121.87 724 1450.6 597.4 1450.6 441.23C1450.6 285.06 1121.87 158.46 716.36 158.46C310.85 158.46 -17.88 285.06 -17.88 441.23C-17.88 597.4 310.85 724 716.36 724Z" fill="url(#paint0_radial_34_108)"/>
<path d="M716.36 489.74C976.95 489.74 1188.2 431.327 1188.2 359.27C1188.2 287.213 976.95 228.8 716.36 228.8C455.77 228.8 244.52 287.213 244.52 359.27C244.52 431.327 455.77 489.74 716.36 489.74Z" fill="url(#paint1_radial_34_108)"/>
<path d="M1559 560.2C1559 696.87 1141.47 777.6 720 777.6C298.53 777.6 -112.6 692.28 -112.6 555.6C-112.6 418.92 298.53 282.67 720 282.67C1141.47 282.67 1559 423.52 1559 560.2Z" fill="#0C0C0C"/>
<path d="M1546.6 554.8C1546.6 691.47 1141.47 777.6 720 777.6C298.53 777.6 -122.2 696.87 -122.2 560.2C-122.2 423.53 298.53 282.67 720 282.67C1141.47 282.67 1546.6 418.13 1546.6 554.8Z" fill="url(#paint2_linear_34_108)"/>
<path opacity="0.69" d="M1559 560.2C1559 612.49 1721.56 854.45 1636.2 894.4C1498.45 958.88 980.22 777.6 720 777.6C298.53 777.6 -122.2 696.87 -122.2 560.2C-122.2 423.53 298.53 282.67 720 282.67C1141.47 282.67 1559 423.52 1559 560.2Z" fill="url(#paint3_linear_34_108)"/>
<path opacity="0.69" d="M-122.2 560.2C-122.2 612.49 -280.46 854.45 -195.1 894.4C-57.35 958.88 460.88 777.6 721.1 777.6C1142.57 777.6 1559 696.87 1559 560.2C1559 423.53 1142.57 282.67 721.1 282.67C299.63 282.67 -122.2 423.52 -122.2 560.2Z" fill="url(#paint4_linear_34_108)"/>
<path d="M-234.81 713.61C-234.81 475.02 192.67 281.61 720 281.61C1247.33 281.61 1674.81 475.02 1674.81 713.61" stroke="url(#paint5_linear_34_108)" stroke-width="7" stroke-miterlimit="10"/>
</g>
<defs>
<radialGradient id="paint0_radial_34_108" cx="0" cy="0" r="1" gradientUnits="userSpaceOnUse" gradientTransform="translate(713.92 440.092) scale(733.195 283.556)">
<stop stop-color="#ED1C24"/>
<stop offset="0.25" stop-color="#EF1826"/>
<stop offset="0.48" stop-color="#F70C2F"/>
<stop offset="0.63" stop-color="#FF0137"/>
<stop offset="0.64" stop-color="#FF0137" stop-opacity="0.95"/>
<stop offset="0.82" stop-color="#FF0137" stop-opacity="0.44"/>
<stop offset="0.94" stop-color="#FF0137" stop-opacity="0.12"/>
<stop offset="1" stop-color="#FF0137" stop-opacity="0"/>
</radialGradient>
<radialGradient id="paint1_radial_34_108" cx="0" cy="0" r="1" gradientUnits="userSpaceOnUse" gradientTransform="translate(711.822 369.102) scale(469.893 129.626)">
<stop offset="0.68" stop-color="white"/>
<stop offset="0.77" stop-color="white" stop-opacity="0.7"/>
<stop offset="0.88" stop-color="white" stop-opacity="0.33"/>
<stop offset="0.96" stop-color="white" stop-opacity="0.09"/>
<stop offset="1" stop-color="white" stop-opacity="0"/>
</radialGradient>
<linearGradient id="paint2_linear_34_108" x1="712.2" y1="282.67" x2="712.2" y2="777.6" gradientUnits="userSpaceOnUse">
<stop stop-color="#FF0137" stop-opacity="0.96"/>
<stop offset="0.05" stop-color="#FF0137" stop-opacity="0.78"/>
<stop offset="0.09" stop-color="#FF0137" stop-opacity="0.61"/>
<stop offset="0.14" stop-color="#FF0137" stop-opacity="0.47"/>
<stop offset="0.2" stop-color="#FF0137" stop-opacity="0.34"/>
<stop offset="0.25" stop-color="#FF0137" stop-opacity="0.23"/>
<stop offset="0.32" stop-color="#FF0137" stop-opacity="0.15"/>
<stop offset="0.4" stop-color="#FF0137" stop-opacity="0.08"/>
<stop offset="0.49" stop-color="#FF0137" stop-opacity="0.03"/>
<stop offset="0.63" stop-color="#FF0137" stop-opacity="0"/>
<stop offset="1" stop-color="#FF0137" stop-opacity="0"/>
</linearGradient>
<linearGradient id="paint3_linear_34_108" x1="949.42" y1="235.27" x2="679.85" y2="937.53" gradientUnits="userSpaceOnUse">
<stop stop-color="#FF0137" stop-opacity="0.96"/>
<stop offset="0.05" stop-color="#FF0137" stop-opacity="0.78"/>
<stop offset="0.09" stop-color="#FF0137" stop-opacity="0.61"/>
<stop offset="0.14" stop-color="#FF0137" stop-opacity="0.47"/>
<stop offset="0.2" stop-color="#FF0137" stop-opacity="0.34"/>
<stop offset="0.25" stop-color="#FF0137" stop-opacity="0.23"/>
<stop offset="0.32" stop-color="#FF0137" stop-opacity="0.15"/>
<stop offset="0.4" stop-color="#FF0137" stop-opacity="0.08"/>
<stop offset="0.49" stop-color="#FF0137" stop-opacity="0.03"/>
<stop offset="0.63" stop-color="#FF0137" stop-opacity="0"/>
<stop offset="1" stop-color="#FF0137" stop-opacity="0"/>
</linearGradient>
<linearGradient id="paint4_linear_34_108" x1="489.42" y1="235.17" x2="758.92" y2="937.24" gradientUnits="userSpaceOnUse">
<stop stop-color="#FF0137" stop-opacity="0.96"/>
<stop offset="0.05" stop-color="#FF0137" stop-opacity="0.78"/>
<stop offset="0.09" stop-color="#FF0137" stop-opacity="0.61"/>
<stop offset="0.14" stop-color="#FF0137" stop-opacity="0.47"/>
<stop offset="0.2" stop-color="#FF0137" stop-opacity="0.34"/>
<stop offset="0.25" stop-color="#FF0137" stop-opacity="0.23"/>
<stop offset="0.32" stop-color="#FF0137" stop-opacity="0.15"/>
<stop offset="0.4" stop-color="#FF0137" stop-opacity="0.08"/>
<stop offset="0.49" stop-color="#FF0137" stop-opacity="0.03"/>
<stop offset="0.63" stop-color="#FF0137" stop-opacity="0"/>
<stop offset="1" stop-color="#FF0137" stop-opacity="0"/>
</linearGradient>
<linearGradient id="paint5_linear_34_108" x1="-238.31" y1="495.86" x2="1678.31" y2="495.86" gradientUnits="userSpaceOnUse">
<stop stop-color="#FF1549"/>
<stop offset="0.5" stop-color="white"/>
<stop offset="1" stop-color="#FF1549"/>
</linearGradient>
</defs>
</svg>
